# xmcd
#
# Track frame offsets:
#	183
#	10558
#	23693
#	34573
#	46108
#	59755
#	73763
#	86463
#	94925
#	107080
#	118473
#	128928
#	143033
#	151400
#	163278
#
# Disc length: 2300 seconds
#
# Revision: 3
# Processed by: cddbd v1.4PL0 Copyright (c) Steve Scherf et al.
# Submitted via: audiograbber 1.82.01
#
DISCID=c908fa0f
DTITLE=Various Artist - All - Time Country Hits CD-3
DYEAR=1993
DGENRE=Country
TTITLE0=Faron Young - Hello walls
TTITLE1=Ray Stevens - Misty
TTITLE2=Ferlin Huskey - Wings of a dove
TTITLE3=Patsy Cline - Walkin' after midnight
TTITLE4=Jimmy Dean - Big bad John
TTITLE5=Jeannie Seely - Don't touch me
TTITLE6=Sanford Clark - The fool
TTITLE7=The Western Themes Orchestra - Bonanza
TTITLE8=Hank Thompson - The wild side of life
TTITLE9=Kitty Wells - It wasn't God who made honky tonkangels
TTITLE10=Dave Dudley - Six days on the road
TTITLE11=Barbara Fairchild - Teddy bear song
TTITLE12=Roger Miller - Dang me
TTITLE13=Donna Fargo - The happiest girl in the wholw U.S.A.
TTITLE14=Harden Trio - Tippy-Toeing
EXTD=
EXTT0=
EXTT1=
EXTT2=
EXTT3=
EXTT4=
EXTT5=
EXTT6=
EXTT7=
EXTT8=
EXTT9=
EXTT10=
EXTT11=
EXTT12=
EXTT13=
EXTT14=
PLAYORDER=
